<svg height="512pt" viewBox="0 0 512 512" width="512pt" xmlns="http://www.w3.org/2000/svg"><path d="m391.5 15c0-8.28125-6.71875-15-15-15h-241c-8.28125 0-15 6.71875-15 15v35.328125h271zm0 0"/><path d="m447.734375 285.242188v-45.308594c0-8.285156-6.71875-15-15-15h-64.269531c-8.28125 0-15 6.730468-15 15.015625 0 18.351562-14.859375 33.183593-33.183594 33.183593h-128.546875c-18.308594 0-33.203125-14.894531-33.203125-33.199218 0-8.285156-6.714844-15-15-15h-64.265625c-8.28125 0-15 6.714844-15 15v45.3125l-63.191406 157.984375c-.710938 1.769531-1.074219 3.675781-1.074219 5.585937 0 34.839844 28.34375 63.183594 63.183594 63.183594h385.632812c34.839844 0 63.183594-28.34375 63.183594-63.199219 0-1.910156-.363281-3.800781-1.074219-5.570312zm-135.5 36.089843h16.066406c8.285157 0 15 6.71875 15 15 0 8.285157-6.714843 15-15 15h-16.066406c-8.285156 0-15-6.714843-15-15 0-8.28125 6.714844-15 15-15zm-16.066406 48.199219c8.28125 0 15 6.71875 15 15 0 8.285156-6.71875 15-15 15h-16.066407c-8.285156 0-15-6.714844-15-15 0-8.28125 6.714844-15 15-15zm-48.199219-48.199219h16.0625c8.285156 0 15 6.71875 15 15 0 8.285157-6.714844 15-15 15h-16.0625c-8.285156 0-15-6.714843-15-15 0-8.28125 6.714844-15 15-15zm-16.070312 48.199219c8.285156 0 15 6.71875 15 15 0 8.285156-6.714844 15-15 15h-16.0625c-8.285157 0-15-6.714844-15-15 0-8.28125 6.714843-15 15-15zm-48.199219-48.199219h16.066406c8.285156 0 15 6.71875 15 15 0 8.285157-6.714844 15-15 15h-16.066406c-8.285157 0-15-6.714843-15-15 0-8.28125 6.714843-15 15-15zm-72.300781 126.402344h-16.066407c-8.28125 0-15-6.71875-15-15 0-8.285156 6.71875-15 15-15h16.066407c8.285156 0 15 6.714844 15 15 0 8.28125-6.714844 15-15 15zm8.035156-96.402344c-8.285156 0-15-6.714843-15-15 0-8.28125 6.714844-15 15-15h16.066406c8.285156 0 15 6.71875 15 15 0 8.285157-6.714844 15-15 15zm17.132812 33.199219c0-8.28125 6.714844-15 15-15h16.066406c8.285157 0 15 6.71875 15 15 0 8.285156-6.714843 15-15 15h-16.066406c-8.285156 0-15-6.714844-15-15zm215.832032 63.203125h-192.796876c-8.285156 0-15-6.71875-15-15 0-8.285156 6.714844-15 15-15h192.796876c8.285156 0 15 6.714844 15 15 0 8.28125-6.714844 15-15 15zm8.035156-48.203125h-16.066406c-8.285157 0-15-6.714844-15-15 0-8.28125 6.714843-15 15-15h16.066406c8.285156 0 15 6.71875 15 15 0 8.285156-6.714844 15-15 15zm1.066406-63.199219c0-8.28125 6.714844-15 15-15h16.066406c8.285156 0 15 6.71875 15 15 0 8.285157-6.714844 15-15 15h-16.066406c-8.285156 0-15-6.714843-15-15zm55.167969 111.402344h-16.066407c-8.285156 0-15-6.71875-15-15 0-8.285156 6.714844-15 15-15h16.0625c8.285157 0 15 6.714844 15 15 0 8.28125-6.714843 15-14.996093 15zm0 0"/><path d="m188.53125 239.933594c0 1.734375 1.464844 3.199218 3.203125 3.199218h128.546875c1.757812 0 3.183594-1.429687 3.183594-3.183593 0-24.820313 20.1875-45.015625 45-45.015625h55.167968v-99.597656c0-8.285157-6.714843-15-15-15h-305.265624c-8.285157 0-15 6.714843-15 15v99.597656h55.167968c24.8125 0 44.996094 20.183594 44.996094 45zm11.234375-105h112.46875c8.285156 0 15 6.714844 15 15s-6.714844 15-15 15h-112.46875c-8.28125 0-15-6.714844-15-15s6.714844-15 15-15zm0 0"/><path d="m17.136719 262.96875c9.460937 0 17.132812-7.671875 17.132812-17.136719v-30.003906c0-17.269531 9.78125-32.308594 24.101563-39.839844v-23.359375h-24.15625c-.554688-8.960937-7.976563-16.0625-17.078125-16.0625-9.464844 0-17.136719 7.671875-17.136719 17.132813v92.132812c0 9.464844 7.671875 17.136719 17.136719 17.136719zm0 0"/><path d="m497 88.367188c-8.285156 0-15 6.714843-15 15v49.261718h-28.371094v23.359375c14.320313 7.53125 24.101563 22.570313 24.101563 39.839844v31.070313h19.269531c8.28125 0 15-6.71875 15-15v-128.53125c0-8.285157-6.714844-15-15-15zm0 0"/></svg>